<?xml version="1.0" encoding="UTF-8" standalone="no"?>
<svg
   xmlns:dc="http://purl.org/dc/elements/1.1/"
   xmlns:cc="http://creativecommons.org/ns#"
   xmlns:rdf="http://www.w3.org/1999/02/22-rdf-syntax-ns#"
   xmlns:svg="http://www.w3.org/2000/svg"
   xmlns="http://www.w3.org/2000/svg"
   xmlns:sodipodi="http://sodipodi.sourceforge.net/DTD/sodipodi-0.dtd"
   xmlns:inkscape="http://www.inkscape.org/namespaces/inkscape"
   width="210mm"
   height="297mm"
   viewBox="0 0 210 297"
   version="1.1"
   id="svg8"
   inkscape:version="1.0.2-2 (e86c870879, 2021-01-15)"
   sodipodi:docname="svm-visualization.svg"
   inkscape:export-filename="C:\Users\Lenovo\Documents\Faks\3god\BSc_Thesis\BSc_Thesis\report\images\svm-visualization.png"
   inkscape:export-xdpi="96"
   inkscape:export-ydpi="96">
  <defs
     id="defs2">
    <rect
       x="77.107143"
       y="59.909226"
       width="53.458077"
       height="30.708457"
       id="rect859" />
    <rect
       x="77.107143"
       y="59.909226"
       width="53.458077"
       height="30.708457"
       id="rect869" />
    <rect
       x="77.107143"
       y="59.909226"
       width="53.458077"
       height="30.708457"
       id="rect907" />
    <rect
       x="77.107143"
       y="59.909226"
       width="53.458077"
       height="30.708457"
       id="rect910" />
    <rect
       x="77.107143"
       y="59.909226"
       width="53.458077"
       height="30.708457"
       id="rect920" />
    <rect
       x="77.107143"
       y="59.909226"
       width="53.458077"
       height="30.708457"
       id="rect932" />
  </defs>
  <sodipodi:namedview
     id="base"
     pagecolor="#ffffff"
     bordercolor="#666666"
     borderopacity="1.0"
     inkscape:pageopacity="0.0"
     inkscape:pageshadow="2"
     inkscape:zoom="1.4"
     inkscape:cx="426.04433"
     inkscape:cy="505.08387"
     inkscape:document-units="mm"
     inkscape:current-layer="layer1"
     inkscape:document-rotation="0"
     showgrid="false"
     inkscape:window-width="1920"
     inkscape:window-height="991"
     inkscape:window-x="-9"
     inkscape:window-y="-9"
     inkscape:window-maximized="1" />
  <metadata
     id="metadata5">
    <rdf:RDF>
      <cc:Work
         rdf:about="">
        <dc:format>image/svg+xml</dc:format>
        <dc:type
           rdf:resource="http://purl.org/dc/dcmitype/StillImage" />
        <dc:title />
      </cc:Work>
    </rdf:RDF>
  </metadata>
  <g
     inkscape:label="Layer 1"
     inkscape:groupmode="layer"
     id="layer1">
    <path
       style="fill:none;stroke:#000000;stroke-width:0.264583px;stroke-linecap:butt;stroke-linejoin:miter;stroke-opacity:1"
       d="m 28.865107,88.466212 c 0,116.529508 0,116.529508 0,116.529508 H 146.19643"
       id="path833" />
    <path
       style="fill:none;stroke:#000000;stroke-width:0.765;stroke-linecap:butt;stroke-linejoin:miter;stroke-opacity:1;stroke-miterlimit:4;stroke-dasharray:none"
       d="M 53.721174,177.1997 C 140.3165,97.820645 140.3165,97.820645 140.3165,97.820645"
       id="path837" />
    <path
       style="fill:none;stroke:#000000;stroke-width:0.272;stroke-linecap:butt;stroke-linejoin:miter;stroke-miterlimit:4;stroke-dasharray:none;stroke-opacity:1"
       d="M 43.359154,170.88324 C 130.56522,90.617683 130.56522,90.617683 130.56522,90.617683"
       id="path839" />
    <path
       style="fill:none;stroke:#000000;stroke-width:0.272;stroke-linecap:butt;stroke-linejoin:miter;stroke-miterlimit:4;stroke-dasharray:none;stroke-opacity:1"
       d="M 66.340097,184.64166 C 153.54608,104.37605 153.54608,104.37605 153.54608,104.37605"
       id="path841" />
    <path
       style="fill:none;stroke:#000000;stroke-width:0.126213px;stroke-linecap:butt;stroke-linejoin:miter;stroke-opacity:1"
       d="m 115.99016,103.89415 c 8.52219,8.60695 8.43248,8.69756 8.43248,8.69756"
       id="path843" />
    <g
       id="g896"
       transform="translate(-9.75697,-9.5878)">
      <path
         style="fill:none;stroke:#000000;stroke-width:0.264583px;stroke-linecap:butt;stroke-linejoin:miter;stroke-opacity:1"
         d="m 133.66183,120.05469 c 0.51778,2.12482 0.51778,2.12482 0.51778,2.12482"
         id="path845" />
      <path
         style="fill:none;stroke:#000000;stroke-width:0.264583px;stroke-linecap:butt;stroke-linejoin:miter;stroke-opacity:1"
         d="m 133.66183,120.05469 c 0.51778,2.12482 0.51778,2.12482 0.51778,2.12482"
         id="path847" />
      <path
         style="fill:none;stroke:#000000;stroke-width:0.264583px;stroke-linecap:butt;stroke-linejoin:miter;stroke-opacity:1"
         d="m 132.19717,121.56659 c 1.98244,0.61292 1.98244,0.61292 1.98244,0.61292"
         id="path849" />
    </g>
    <path
       style="fill:none;stroke:#000000;stroke-width:0.264583px;stroke-linecap:butt;stroke-linejoin:miter;stroke-opacity:1"
       d="m 118.21205,104.41592 c 0,0 0,0 -2.17221,-0.47118 0.32958,1.7941 0.32958,1.7941 0.32958,1.7941"
       id="path851" />
    <path
       style="fill:none;stroke:#000000;stroke-width:0.2;stroke-linecap:butt;stroke-linejoin:miter;stroke-opacity:1;stroke-miterlimit:4;stroke-dasharray:none"
       d="m 119.8657,106.63653 c 1.07883,-0.61647 0.89219,-0.48458 2.55134,-2.03162 0.8393,-0.78259 1.89775,-1.79147 1.70089,-3.07106 -0.12026,-0.78167 -0.86668,-1.51172 -1.27567,-2.031619 -0.55358,-0.703699 -1.12554,-1.392864 -1.70089,-2.078868 -0.47203,-0.5628 -0.70139,-1.086683 -1.41741,-1.086683"
       id="path855" />
    <text
       xml:space="preserve"
       id="text857"
       style="font-style:normal;font-variant:normal;font-weight:normal;font-stretch:normal;font-size:4.23333px;line-height:1.25;font-family:'Bell MT';-inkscape-font-specification:'Bell MT';white-space:pre;shape-inside:url(#rect859);"
       transform="matrix(1.5765338,0,0,1.5765338,-18.662727,-5.8669132)"><tspan
         x="77.107422"
         y="63.470733"><tspan
           style="font-weight:bold">epsilon</tspan></tspan></text>
    <path
       style="fill:none;stroke:#000000;stroke-width:0.264583px;stroke-linecap:butt;stroke-linejoin:miter;stroke-opacity:1"
       d="m 106.58928,128.13393 c 0.48788,1.9515 -0.48787,1.07231 0,3.02381 1.20074,4.80294 7.63773,11.6434 11.71727,14.36309 1.23649,0.82433 2.37479,0.98504 3.77976,1.51191 0.82961,0.3111 1.78267,0.99007 2.64583,1.13392 3.00554,0.50093 4.60458,-0.27493 7.18155,-1.13392 0.70236,-0.23412 1.90186,0 2.64583,0"
       id="path863" />
    <text
       xml:space="preserve"
       id="text867"
       style="font-style:normal;font-variant:normal;font-weight:normal;font-stretch:normal;font-size:4.23333px;line-height:1.25;font-family:'Bell MT';-inkscape-font-specification:'Bell MT';white-space:pre;shape-inside:url(#rect869);"
       transform="matrix(1.5765338,0,0,1.5765338,16.961529,45.915825)"><tspan
         x="77.107422"
         y="63.470733"><tspan
           style="font-style:normal;font-variant:normal;font-weight:bold;font-stretch:normal;font-size:4.23333px;font-family:'Bell MT';-inkscape-font-specification:'Bell MT'">hyperplane</tspan></tspan></text>
    <ellipse
       style="opacity:1;fill:#000080;stroke:#000080;stroke-width:0.2;stroke-linecap:round;stroke-linejoin:bevel;stroke-miterlimit:4;stroke-dasharray:none;paint-order:markers stroke fill"
       id="path871"
       cx="70.681549"
       cy="161.20685"
       rx="2.8348215"
       ry="2.4568453" />
    <ellipse
       style="opacity:1;fill:#000080;stroke:#000080;stroke-width:0.2;stroke-linecap:round;stroke-linejoin:bevel;stroke-miterlimit:4;stroke-dasharray:none;paint-order:markers stroke fill"
       id="ellipse873"
       cx="99.407738"
       cy="134.18155"
       rx="2.8348215"
       ry="2.4568453" />
    <ellipse
       style="opacity:1;fill:#000080;stroke:#000080;stroke-width:0.2;stroke-linecap:round;stroke-linejoin:bevel;stroke-miterlimit:4;stroke-dasharray:none;paint-order:markers stroke fill"
       id="ellipse875"
       cx="80.886909"
       cy="144.3869"
       rx="2.8348215"
       ry="2.4568453" />
    <ellipse
       style="opacity:1;fill:#000080;stroke:#000080;stroke-width:0.2;stroke-linecap:round;stroke-linejoin:bevel;stroke-miterlimit:4;stroke-dasharray:none;paint-order:markers stroke fill"
       id="ellipse877"
       cx="115.47173"
       cy="120.57439"
       rx="2.8348215"
       ry="2.4568453" />
    <ellipse
       style="opacity:1;fill:#000080;stroke:#000080;stroke-width:0.2;stroke-linecap:round;stroke-linejoin:bevel;stroke-miterlimit:4;stroke-dasharray:none;paint-order:markers stroke fill"
       id="ellipse879"
       cx="96.572922"
       cy="119.81844"
       rx="2.8348215"
       ry="2.4568453" />
    <ellipse
       style="opacity:1;fill:#000080;stroke:#000080;stroke-width:0.2;stroke-linecap:round;stroke-linejoin:bevel;stroke-miterlimit:4;stroke-dasharray:none;paint-order:markers stroke fill"
       id="ellipse881"
       cx="97.895844"
       cy="148.35564"
       rx="2.8348215"
       ry="2.4568453" />
    <ellipse
       style="opacity:1;fill:#000080;stroke:#000080;stroke-width:0.2;stroke-linecap:round;stroke-linejoin:bevel;stroke-miterlimit:4;stroke-dasharray:none;paint-order:markers stroke fill"
       id="ellipse883"
       cx="92.604172"
       cy="159.12796"
       rx="2.8348215"
       ry="2.4568453" />
    <path
       style="fill:none;stroke:#000000;stroke-width:0.264583px;stroke-linecap:butt;stroke-linejoin:miter;stroke-opacity:1"
       d="m 94.116071,168.1994 c -1.033774,4.44987 -2.10344,9.12057 -4.157739,13.22917 -0.51164,1.02328 -5.247148,7.02588 -6.047618,7.55952 -0.73434,0.48956 -2.565686,0.98122 -3.023809,1.13393"
       id="path901" />
    <text
       xml:space="preserve"
       id="text905"
       style="font-style:normal;font-variant:normal;font-weight:normal;font-stretch:normal;font-size:4.23333px;line-height:1.25;font-family:'Bell MT';-inkscape-font-specification:'Bell MT';white-space:pre;shape-inside:url(#rect907);"
       transform="matrix(1.5765338,0,0,1.5765338,-52.58609,97.320587)"><tspan
         x="77.107422"
         y="63.470733"><tspan
           style="font-style:normal;font-variant:normal;font-weight:bold;font-stretch:normal;font-size:4.23333px;font-family:'Bell MT';-inkscape-font-specification:'Bell MT'">support vectors</tspan></tspan></text>
    <path
       style="fill:none;stroke:#000000;stroke-width:0.264583px;stroke-linecap:butt;stroke-linejoin:miter;stroke-opacity:1"
       d="m 143.44196,202.26451 2.75447,2.73121 c -2.51823,2.6077 -2.51823,2.6077 -2.51823,2.6077"
       id="path909" />
    <path
       style="fill:none;stroke:#000000;stroke-width:0.264583px;stroke-linecap:butt;stroke-linejoin:miter;stroke-opacity:1"
       d="m 31.337353,92.341619 c 0,0 0,0 -2.472246,-3.875407 -2.472241,3.808593 -2.472241,3.808593 -2.472241,3.808593"
       id="path911" />
    <path
       style="fill:none;stroke:#000000;stroke-width:0.264583px;stroke-linecap:butt;stroke-linejoin:miter;stroke-opacity:1"
       d="m 95.438988,122.2753 c -2.63417,7.37568 -1.182116,3.22976 -5.858632,17.76488 -0.984025,3.05845 -2.426681,7.01062 -3.023809,10.39434 -0.269224,1.5256 -0.266858,3.22417 -0.566965,4.7247 -0.39969,1.99846 -1.304938,3.78897 -1.511906,5.85864 -0.473019,4.7302 0.214562,9.62281 -0.377975,14.36309 -0.299122,2.39298 -0.660152,5.00166 -1.133928,7.37054 -0.521761,2.6088 -2.078871,3.84023 -2.078868,7.37053"
       id="path891" />
    <text
       xml:space="preserve"
       id="text908"
       style="font-style:normal;font-variant:normal;font-weight:normal;font-stretch:normal;font-size:4.23333px;line-height:1.25;font-family:'Bell MT';-inkscape-font-specification:'Bell MT';white-space:pre;shape-inside:url(#rect910);"
       transform="matrix(1.5765338,0,0,1.5765338,34.159445,19.079515)"><tspan
         x="77.107422"
         y="63.470733"><tspan
           style="font-weight:bold">decision 
</tspan></tspan><tspan
         x="77.107422"
         y="68.765258"><tspan
           style="font-weight:bold">boundaries</tspan></tspan></text>
    <path
       style="fill:none;stroke:#000000;stroke-width:0.264583px;stroke-linecap:butt;stroke-linejoin:miter;stroke-opacity:1"
       d="m 100.54167,133.99256 c 0.24573,5.28354 4.25031,8.68963 6.42559,13.04018 0.45447,0.90893 0.74839,1.78404 1.32292,2.64583 0.73305,1.09957 1.82769,1.86251 2.83482,2.64583 2.08516,1.62179 3.82834,3.82835 5.66964,5.66965 2.27611,2.27611 4.04224,5.36515 6.23661,7.55952"
       id="path912" />
    <text
       xml:space="preserve"
       id="text918"
       style="font-style:normal;font-variant:normal;font-weight:normal;font-stretch:normal;font-size:4.23333px;line-height:1.25;font-family:'Bell MT';-inkscape-font-specification:'Bell MT';white-space:pre;shape-inside:url(#rect920);"
       transform="matrix(1.5765338,0,0,1.5765338,4.1103385,70.295289)"><tspan
         x="77.107422"
         y="63.470733"><tspan
           style="font-weight:bold">fitted by SVR</tspan></tspan></text>
    <path
       style="fill:none;stroke:#000000;stroke-width:0.264583px;stroke-linecap:butt;stroke-linejoin:miter;stroke-opacity:1"
       d="m 126.81101,91.09226 c -0.0953,-2.371022 1.63424,-4.280075 3.2128,-5.858629 3.95121,-3.951211 9.59056,-7.098361 14.93006,-3.401788 5.79546,4.012248 9.02044,13.277956 11.33928,19.654767 1.36037,3.74102 4.53572,7.73793 4.53572,11.71726"
       id="path922" />
    <path
       style="fill:none;stroke:#000000;stroke-width:0.264583px;stroke-linecap:butt;stroke-linejoin:miter;stroke-opacity:1"
       d="m 146.0878,112.06994 c 3.40841,1.59641 7.5411,1.35748 11.15029,0.75595 2.0845,-0.34742 4.00139,-0.9518 3.96875,-0.75595 -0.0655,0.393 -0.25198,0.75595 -0.37797,1.13393"
       id="path926" />
    <text
       xml:space="preserve"
       id="text930"
       style="font-style:normal;font-variant:normal;font-weight:normal;font-stretch:normal;font-size:4.23333px;line-height:1.25;font-family:'Bell MT';-inkscape-font-specification:'Bell MT';white-space:pre;shape-inside:url(#rect932);"
       transform="matrix(1.5765338,0,0,1.5765338,-79.4224,24.749158)"><tspan
         x="77.107422"
         y="63.470733"><tspan
           style="font-weight:bold">data points</tspan></tspan></text>
    <path
       style="fill:none;stroke:#000000;stroke-width:0.264583px;stroke-linecap:butt;stroke-linejoin:miter;stroke-opacity:1"
       d="m 79.941964,144.57589 c -6.087454,-1.21749 -8.840422,-1.71187 -16.630954,-4.15774 -2.513751,-0.7892 -7.488923,-5.45568 -6.80357,-8.88244 0.323226,-1.61613 2.078868,-3.24968 2.078868,-4.7247"
       id="path934" />
  </g>
</svg>
